<svg width="180" height="180" viewBox="0 0 180 180" xmlns="http://www.w3.org/2000/svg">
  <rect width="180" height="180" rx="40" fill="#0a0a0a"/>
  <g transform="translate(22.5 22.5) scale(2.109375)" fill="none" stroke="#fafafa" stroke-width="5.25" stroke-linecap="round" stroke-linejoin="round">
    <path d="M28 23.5
             C28 19.5 24.5 17.5 20 17.5
             C14.5 17.5 11.5 20 11.5 23.5
             C11.5 27 15 28.5 20 30
             C25 31.5 28.5 33 28.5 36.5
             C28.5 40 25 42 20 42
             C14.5 42 11 40 11 36"/>
    <circle cx="42" cy="32.75" r="9.25"/>
    <path d="M51.25 32.75
             L51.25 47
             C51.25 52 47.5 54.5 42 54.5
             C36.75 54.5 33.75 52 33.75 49"/>
  </g>
  <circle cx="139.5" cy="111.1" r="5.3" fill="#fafafa"/>
</svg>
